<?xml version="1.0" encoding="UTF-8" standalone="no"?>
<!-- Generated by SVGMaker - https://svgmaker.io -->
<!-- Prompt: image has been manually edited -->
<!-- Quality: medium -->
<!-- Type: crafted -->
<!-- Created: 2026-03-07T23:59:33.819Z -->
<svg xmlns="http://www.w3.org/2000/svg" xmlns:xlink="http://www.w3.org/1999/xlink" version="1.1" width="270" height="256" viewBox="0 0 1080 1024">
<desc>Created with SVGMaker Editor 2.2.3</desc>
<defs>
</defs>
<path transform="translate(0,0)" style="fill: rgb(140,208,206)" stroke-linecap="round" d="M 536.536 75.4181 C 538.555 75.2092 540.583 75.0903 542.613 75.0619 C 559.29 74.7922 586.047 77.1282 601.801 82.7865 C 625.091 91.1514 658.955 111.905 674.793 130.958 C 697.565 158.747 711.24 192.182 727.912 223.755 C 762.515 289.286 800.645 352.78 835.038 418.398 C 848.624 444.319 863.86 469.298 877.773 495.031 C 889.236 516.234 899.747 538.098 911.573 559.091 L 952.242 632.923 C 975.879 675.88 1001.21 714.727 1002.42 765.108 C 1004.97 871.692 917.1 951.283 812.516 948.838 C 745.988 947.283 678.905 949.116 612.362 947.128 C 570.552 945.776 542.779 902.129 542.903 862.964 C 542.781 843.453 550.536 824.718 564.413 811.002 C 590.318 785.332 622.506 790.679 657.25 790.781 C 705.949 790.794 754.771 790.83 803.479 791.044 C 815.895 791.058 829.225 787.21 838.021 778.11 C 850.158 765.554 839.618 746.288 833.265 733.478 C 822.06 710.883 808.275 689.797 795.707 668.042 C 780.681 642.033 765.616 615.838 751.032 589.586 L 619.696 351.392 L 590.218 298.301 C 581.407 282.284 553.595 214.346 530.482 247.337 C 507.283 280.451 486.88 322.528 467.482 358.753 C 447.067 396.876 436.174 429.146 386.418 434.28 C 345.046 438.549 305.043 396.464 301.022 356.823 C 300.417 331.184 336.08 275.154 348.822 251.384 C 397.499 160.573 418.48 84.0741 536.536 75.4181 Z"></path>
<path transform="translate(0,0)" style="fill: rgb(140,208,206)" stroke-linecap="round" d="M 290.707 458.402 C 292.207 458.274 293.709 458.178 295.213 458.114 C 310.881 457.477 325.704 460.963 337.596 471.983 C 353.047 486.3 368.427 515.837 366.82 537.119 C 365.758 551.183 350.815 575.254 343.874 588.027 C 328.017 617.818 311.782 647.405 295.172 676.782 C 284.23 696.016 272.56 713.908 262.671 734.504 C 254.374 751.784 246.319 778.715 270.664 788.411 C 280.203 792.21 299.421 791.182 310.341 791.167 L 382.246 790.822 C 411.471 790.522 450.382 785.894 473.674 805.618 C 509.965 836.348 503.106 891.866 474.869 925.191 C 460.328 942.352 440.637 947.332 419.25 948.191 C 393.159 949.203 364.249 948.046 337.718 948.296 C 269.989 948.933 224.614 953.01 167.53 908.07 C 125.575 875.477 103.173 835.597 96.0196 783.176 C 87.3261 719.474 117.629 682.713 144.86 630.841 L 189.78 546.603 C 218.517 492.856 223.652 465.698 290.707 458.402 Z"></path>
</svg>